<svg role="img" viewBox="0 0 24 24" xmlns="http://www.w3.org/2000/svg"
     width="24" height="24" fill="currentColor">
  <title>GitHub</title>
  <path d="M12 .297a12 12 0 0 0-3.797 23.407c.6.111.793-.261.793-.577v-2.234
  c-3.338.726-4.033-1.416-4.033-1.416-.546-1.387-1.333-1.756-1.333-1.756
  -1.089-.745.083-.729.083-.729 1.205.084 1.838 1.236 1.838 1.236
  1.07 1.835 2.809 1.304 3.495.997.108-.775.418-1.305.762-1.604
  -2.665-.303-5.467-1.334-5.467-5.931
  0-1.311.469-2.381 1.235-3.221
  -.124-.303-.535-1.523.117-3.176
  0 0 1.008-.322 3.301 1.23
  a11.5 11.5 0 0 1 6.003 0
  c2.293-1.552 3.3-1.23 3.3-1.23
  .653 1.653.242 2.873.118 3.176
  .77.84 1.235 1.91 1.235 3.221
  0 4.609-2.807 5.625-5.479 5.921
  .43.372.823 1.102.823 2.222v3.293
  c0 .319.192.694.801.576
  A12 12 0 0 0 12 .297z"/>
</svg>